<?xml version="1.0" encoding="utf-8"?>
<!-- Generator: Adobe Illustrator 27.3.1, SVG Export Plug-In . SVG Version: 6.00 Build 0)  -->
<svg version="1.1" id="Layer_1" xmlns="http://www.w3.org/2000/svg" xmlns:xlink="http://www.w3.org/1999/xlink" x="0px" y="0px"
	 viewBox="0 0 1080 1080" style="enable-background:new 0 0 1080 1080;" xml:space="preserve">
<style type="text/css">
	.st0{fill:#FEFFD2;}
	.st1{fill:#FFBF78;}
</style>
<g>
	<path class="st0" d="M589.9,377.2l-247,207.4c-32,28.1-46.6,72.8-39.7,122.1l0,0C207.3,588,182.4,451.7,249.3,393l326.3-276.8l0,0
		C650.5,201.7,656.8,318.6,589.9,377.2z"/>
	<path class="st1" d="M660.8,857.4L660.8,857.4c-67,58.6-172.4,49.2-219.3-6.5l0,0L562.4,745L660.8,857.4z"/>
	<g>
		<path class="st0" d="M689.3,646L447.4,857.7L327.1,720.3c-8.4-9.6-7.4-24.1,2.2-32.5l246.7-216l116,132.6
			C702.8,616.5,701.5,635.2,689.3,646z"/>
	</g>
</g>
</svg>
